<?xml version="1.0" encoding="utf-8"?>
<svg viewBox="409.29 277.79 512 114.3" xmlns="http://www.w3.org/2000/svg" xmlns:bx="https://boxy-svg.com">
  <defs>
    <style bx:fonts="Roboto">@import url(https://fonts.googleapis.com/css2?family=Roboto%3Aital%2Cwght%400%2C100%3B0%2C300%3B0%2C400%3B0%2C500%3B0%2C700%3B0%2C900%3B1%2C100%3B1%2C300%3B1%2C400%3B1%2C500%3B1%2C700%3B1%2C900&amp;display=swap);</style>
  </defs>
  <g id="SVGRepo_bgCarrier" stroke-width="0" transform="matrix(1, 0, 0, 1, 419.30603, 279.991058)"/>
  <g id="SVGRepo_tracerCarrier" stroke-linecap="round" stroke-linejoin="round" transform="matrix(1, 0, 0, 1, 419.30603, 279.991058)"/>
  <g id="SVGRepo_iconCarrier" transform="matrix(7.566391, 0, 0, 6.84615, 395.161285, 252.599594)" style="">
    <path id="secondary" d="M18.24,5.21C16.76,5.1,14.68,5,12,5s-4.76.1-6.24.21A3,3,0,0,0,3,8.2v7.6a3,3,0,0,0,2.76,3C7.24,18.9,9.32,19,12,19s4.76-.1,6.24-.21a3,3,0,0,0,2.76-3V8.2A3,3,0,0,0,18.24,5.21ZM10,15V9l5,3Z" style="fill: #74569b; stroke-width: 2;"/>
    <path id="primary" d="M15,12l-5,3V9Zm6-3.8a3,3,0,0,0-2.76-3C16.75,5.1,14.68,5,12,5s-4.75.1-6.24.21A3,3,0,0,0,3,8.2v7.6a3,3,0,0,0,2.76,3C7.25,18.9,9.32,19,12,19s4.75-.1,6.24-.21a3,3,0,0,0,2.76-3Z" style="fill: none; stroke: #000000; stroke-linecap: round; stroke-linejoin: round; stroke-width: 2;"/>
  </g>
  <text style="fill: rgb(241, 241, 241); font-family: Roboto; font-size: 122.8px; font-weight: 700; white-space: pre;" x="569.958" y="381.303">fiTube</text>
</svg>