<!DOCTYPE svg PUBLIC "-//W3C//DTD SVG 1.1//EN" "http://www.w3.org/Graphics/SVG/1.1/DTD/svg11.dtd">
<!-- Uploaded to: SVG Repo, www.svgrepo.com, Transformed by: SVG Repo Mixer Tools -->
<svg fill="#000000" width="150px" height="150px" viewBox="0 0 24 24" id="youtube" data-name="Flat Line" xmlns="http://www.w3.org/2000/svg" class="icon flat-line">
<g id="SVGRepo_bgCarrier" stroke-width="0"/>
<g id="SVGRepo_tracerCarrier" stroke-linecap="round" stroke-linejoin="round"/>
<g id="SVGRepo_iconCarrier">
<path id="secondary" d="M18.24,5.21C16.76,5.1,14.68,5,12,5s-4.76.1-6.24.21A3,3,0,0,0,3,8.2v7.6a3,3,0,0,0,2.76,3C7.24,18.9,9.32,19,12,19s4.76-.1,6.24-.21a3,3,0,0,0,2.76-3V8.2A3,3,0,0,0,18.24,5.21ZM10,15V9l5,3Z" style="fill: #74569b;; stroke-width: 2;"/>
<path id="primary" d="M15,12l-5,3V9Zm6-3.8a3,3,0,0,0-2.76-3C16.75,5.1,14.68,5,12,5s-4.75.1-6.24.21A3,3,0,0,0,3,8.2v7.6a3,3,0,0,0,2.76,3C7.25,18.9,9.32,19,12,19s4.75-.1,6.24-.21a3,3,0,0,0,2.76-3Z" style="fill: none; stroke: #000000; stroke-linecap: round; stroke-linejoin: round; stroke-width: 2;"/>
</g>
</svg>